# xmcd
#
# Track frame offsets:
#	150
#	9880
#	37392
#	60797
#	73297
#	95027
#	132681
#	158948
#	179361
#	216514
#	240705
#
# Disc length: 3577 seconds
#
# Revision: 7
# Processed by: cddbd v1.5.2PL0 Copyright (c) Steve Scherf et al.
# Submitted via: Jack! The Knife 20 Magnifico
#
DISCID=a50df70b
DTITLE=Loudness - The Sun Will Rise Again
DYEAR=2014
DGENRE=Heavy Metal
TTITLE0=Nourishment Of The Mind
TTITLE1=Got To Be Strong
TTITLE2=Never Ending Fire
TTITLE3=The Metal Man
TTITLE4=Mortality
TTITLE5=The Best
TTITLE6=The Sun Will Rise Again
TTITLE7=Rock You Wild
TTITLE8=Greatest Ever Heavy Metal
TTITLE9=Shout
TTITLE10=Not Alone
EXTD=Loudness
EXTT0=
EXTT1=
EXTT2=
EXTT3=
EXTT4=
EXTT5=
EXTT6=
EXTT7=
EXTT8=
EXTT9=
EXTT10=
PLAYORDER=
